<svg id="font-type-underline" xmlns="http://www.w3.org/2000/svg" viewBox="0 0 48 48"><title>font-type-underline-glyph</title><path d="M17.46,7.87l9.57,25H21.18l-1.94-5.56H9.67l-2,5.56H2l9.68-25Zm.32,15.32L14.55,14h-.07l-3.33,9.17ZM29.4,17.42a6,6,0,0,1,2-1.85,8.89,8.89,0,0,1,2.74-1,16,16,0,0,1,3.07-.3,21.39,21.39,0,0,1,2.83.19,8.86,8.86,0,0,1,2.62.75,5.13,5.13,0,0,1,1.94,1.56,4.28,4.28,0,0,1,.75,2.64v9.41a18.43,18.43,0,0,0,.14,2.34,4.15,4.15,0,0,0,.5,1.68H40.84A6.87,6.87,0,0,1,40.6,32a7.16,7.16,0,0,1-.13-.89,6.67,6.67,0,0,1-2.87,1.71,11.78,11.78,0,0,1-3.37.49A9.33,9.33,0,0,1,31.76,33a5.71,5.71,0,0,1-2-1,4.57,4.57,0,0,1-1.35-1.68,5.57,5.57,0,0,1-.48-2.41,5.16,5.16,0,0,1,.56-2.54,4.56,4.56,0,0,1,1.43-1.59,6.51,6.51,0,0,1,2-.89,22,22,0,0,1,2.28-.47q1.15-.17,2.26-.28a13.88,13.88,0,0,0,2-.32,3.47,3.47,0,0,0,1.36-.61A1.33,1.33,0,0,0,40.26,20,2.59,2.59,0,0,0,40,18.77a2,2,0,0,0-.72-.73,2.87,2.87,0,0,0-1-.35A8.75,8.75,0,0,0,37,17.59a3.93,3.93,0,0,0-2.37.63,2.79,2.79,0,0,0-1,2.1H28.5A5.68,5.68,0,0,1,29.4,17.42Zm10.06,7a8.39,8.39,0,0,1-1,.26q-.56.1-1.17.17T36,25a9.36,9.36,0,0,0-1.13.28,3.39,3.39,0,0,0-1,.47,2.27,2.27,0,0,0-.66.75A2.37,2.37,0,0,0,33,27.7a2.29,2.29,0,0,0,.25,1.12,1.9,1.9,0,0,0,.68.72,2.92,2.92,0,0,0,1,.37,6.55,6.55,0,0,0,1.18.11,4.59,4.59,0,0,0,2.33-.49,3.32,3.32,0,0,0,1.22-1.17A3.69,3.69,0,0,0,40.17,27a9.39,9.39,0,0,0,.09-1.12V24A2.29,2.29,0,0,1,39.46,24.43ZM46,38.13H2v2H46Z" fill="#231f20"/></svg>